<svg width="20" height="20" viewBox="0 0 20 20" fill="none" xmlns="http://www.w3.org/2000/svg">
<path fill-rule="evenodd" clip-rule="evenodd" d="M3.54984 17.4468C3.47665 17.3797 3.40426 17.3114 3.33272 17.2417C-0.444239 13.5641 -0.444238 7.60137 3.33272 3.92372C7.10965 0.246033 19.1445 0 19.1445 0C19.1445 0 20.7872 13.5641 17.0103 17.2417C13.6558 20.508 8.45043 20.8734 4.68187 18.338L7.71844 14.7095L12.5727 13.689L8.61019 13.3033L11.1284 10.8067L13.9949 10.1952L11.7282 9.54163L13.9949 5.56014L10.7708 9.08141L9.52577 7.3707L9.96405 10.1952L7.71844 12.6602L6.6775 9.54159V13.689L3.54984 17.4468Z" fill="white"/>
</svg>
